<?xml version="1.0" encoding="UTF-8"?>
<svg xmlns="http://www.w3.org/2000/svg" viewBox="0 0 764.53 287.97">
  <defs>
    <style>
      .cls-1 {
        fill: #0540f2;
      }
    </style>
  </defs>
  <g id="Capa_1" data-name="Capa 1">
    <g>
      <path class="cls-1" d="M349.03,250.04c-5.39-3.17-9.65-7.48-12.78-12.92-3.13-5.44-4.69-11.46-4.69-18.08s1.54-12.78,4.62-18.22c3.08-5.44,7.34-9.74,12.78-12.92,5.44-3.17,11.47-4.76,18.08-4.76,7.25,0,13.64,2,19.17,5.98v-18.7c0-6.72,5.45-12.16,12.16-12.16h4.29v91.52c0,2.01-1.63,3.65-3.65,3.65h-9.15c-2.01,0-3.65-1.63-3.65-3.65v-.97c-2.63,1.9-5.62,3.38-8.97,4.42-3.35,1.04-6.75,1.56-10.2,1.56-6.62,0-12.62-1.58-18.01-4.76ZM380.71,232.77c3.49-3.53,5.23-8.11,5.23-13.73s-1.77-10.22-5.3-13.8c-3.54-3.58-8.07-5.37-13.6-5.37s-10.06,1.79-13.6,5.37c-3.54,3.58-5.3,8.18-5.3,13.8s1.74,10.2,5.23,13.73c3.49,3.54,8.04,5.3,13.66,5.3s10.17-1.77,13.66-5.3Z"/>
      <path class="cls-1" d="M452.16,254.93c-6.07,0-11.83-1.47-17.27-4.42-5.44-2.94-9.79-7.09-13.05-12.44-3.53-5.98-5.3-12.37-5.3-19.17,0-6.16,1.45-11.99,4.35-17.47,2.9-5.48,7.02-9.86,12.37-13.12,5.8-3.54,12.05-5.3,18.76-5.3,7.25,0,13.94,2.09,20.05,6.25,4.16,2.84,7.54,6.39,10.13,10.65,2.05,3.37.94,7.77-2.46,9.77l-40.37,23.77c2.99,2.99,6.71,4.49,11.15,4.49,1.18,0,2.36-.14,3.54-.41,5.08-.27,9.15-2.06,12.24-5.37.64-.69,1.22-1.42,1.74-2.2,4.36-6.57,11.72-10.52,19.61-10.52h0c-.09,6.07-1.52,11.67-4.28,16.79-2.77,5.12-6.55,9.31-11.35,12.58-6.07,4.08-12.69,6.12-19.85,6.12ZM457.56,205.07c1.77-1.02,1.51-3.68-.44-4.3-.02,0-.04-.01-.06-.02-2.18-.68-4.44-1.02-6.8-1.02-3.54,0-6.57.77-9.11,2.31-2.63,1.63-4.55,3.69-5.78,6.19-.8,1.63-1.32,3.71-1.56,6.25-.18,1.92,1.88,3.25,3.55,2.28l20.2-11.7Z"/>
      <path class="cls-1" d="M520.61,252.62c-4.49-1.72-8.5-4.06-12.03-7-3.54-2.94-6.07-6.19-7.61-9.72l2.99-1.53c5.1-2.6,11.16-1.98,15.83,1.34.02.02.05.03.07.05,2.45,1.72,4.94,3.01,7.48,3.88,2.54.86,4.67,1.29,6.39,1.29,4.26,0,7.36-.48,9.31-1.43,1.95-.95,2.92-2.42,2.92-4.42,0-2.26-1.16-3.9-3.47-4.89-2.31-1-5.87-1.99-10.67-2.99-.45-.09-1.75-.34-3.87-.75-2.13-.41-3.97-.93-5.51-1.56-5.08-1.81-9.13-4.44-12.17-7.89-3.04-3.44-4.55-7.39-4.55-11.83s1.27-8.23,3.81-11.9c2.54-3.67,5.94-6.59,10.2-8.77,4.26-2.17,8.84-3.26,13.73-3.26,6.25,0,12.24,1.66,17.95,4.96,5.71,3.31,10.01,8.04,12.92,14.21l-.07.04c-6.26,3.69-14.16,3.75-20.21-.27-3.45-2.29-7.43-3.44-11.94-3.44-2.99,0-5.28.66-6.87,1.97-1.59,1.32-2.38,2.92-2.38,4.83s1.02,3.35,3.06,4.62c2.04,1.27,5.64,2.45,10.81,3.54,8.88,1.81,15.57,4.37,20.05,7.68,4.49,3.31,6.73,7.95,6.73,13.94,0,6.89-2.54,12.26-7.61,16.11-5.08,3.85-12.46,5.78-22.16,5.78-4.26,0-8.63-.86-13.12-2.58Z"/>
      <path class="cls-1" d="M580.98,175.33c-1.86-1.86-2.79-4.1-2.79-6.73s.93-4.85,2.79-6.66c1.86-1.81,4.1-2.72,6.73-2.72s4.87.91,6.73,2.72c1.86,1.81,2.79,4.03,2.79,6.66s-.93,4.87-2.79,6.73c-1.86,1.86-4.1,2.79-6.73,2.79s-4.87-.93-6.73-2.79ZM585.44,253.44h-6.02v-52.48c0-9.09,7.37-16.45,16.45-16.45h0v58.5c0,5.76-4.67,10.43-10.43,10.43Z"/>
      <path class="cls-1" d="M625.3,284.57c-5.21-2.27-9.63-5.57-13.26-9.92l3.35-2.67c5.03-4.01,11.84-4.8,17.75-2.27.04.02.07.03.11.05,3.62,1.54,7.34,2.31,11.15,2.31,5.44,0,9.47-1.18,12.1-3.53,2.63-2.36,4.24-4.92,4.83-7.68.59-2.77.88-5.69.88-8.77h0c0-1.51-1.7-2.36-2.92-1.47-1.64,1.19-3.56,2.13-5.78,2.83-3.72,1.18-7.3,1.63-10.74,1.36-6.8-.45-12.89-2.29-18.29-5.51-5.39-3.22-9.61-7.46-12.64-12.71-3.04-5.26-4.55-11.1-4.55-17.54s1.54-12.8,4.62-18.29c3.08-5.48,7.34-9.79,12.78-12.92s11.46-4.69,18.08-4.69c7.43,0,13.91,2.04,19.44,6.12h0c0-2.63,2.13-4.76,4.76-4.76h11.56v68.8c0,6.8-1.54,12.82-4.62,18.08-3.08,5.26-7.34,9.33-12.78,12.24-5.44,2.9-11.6,4.35-18.49,4.35-6.35,0-12.12-1.13-17.33-3.4ZM656.44,232.77c3.49-3.53,5.23-8.11,5.23-13.73s-1.77-10.22-5.3-13.8c-3.53-3.58-8.07-5.37-13.6-5.37s-9.9,1.77-13.39,5.3c-3.49,3.54-5.23,7.93-5.23,13.19,0,1.18.04,2.04.14,2.58.36,5.08,2.22,9.2,5.57,12.37,3.35,3.17,7.66,4.76,12.92,4.76,5.62,0,10.17-1.77,13.66-5.3Z"/>
      <path class="cls-1" d="M693.76,217.68c0-6.71,1.5-12.78,4.49-18.22s7.14-9.72,12.44-12.85c5.3-3.13,11.22-4.69,17.74-4.69,6.89,0,12.94,1.59,18.15,4.76,5.21,3.17,9.27,7.59,12.17,13.26,2.9,5.67,4.35,12.17,4.35,19.51v33.99h-8.36c-4.47,0-8.09-3.62-8.09-8.09v-25.9c0-6.53-1.61-11.65-4.83-15.36-3.22-3.71-7.68-5.57-13.39-5.57s-10.29,1.84-13.46,5.51c-3.17,3.67-4.76,8.82-4.76,15.43v25.31c0,4.79-3.88,8.68-8.68,8.68h-7.77v-35.76Z"/>
    </g>
  </g>
  <g id="Capa_2" data-name="Capa 2">
    <g>
      <path class="cls-1" d="M448.2,21.04c-21.76-28.93-82.8,18.43-86.24,16.57-3.43-1.86,7.67-15.79,16.71-29.09,7.73-11.37-12.55-8.07-12.55-8.07l-40.74,1.31c-1.24.56-.88,2.41.48,2.46l1.9-.06c2.28.08,1.2,2.76.65,4.98-12.26,49.36-85.29,196.76-98.11,223.17-2.54,5.23,1.9,8.92,8.06,8.79l25.52-.68c6.09-2.32,8.88-6.92,11.95-13.92,8.3-18.91,35.75-72.16,43.26-88.18,2.06-4.4,6.73-6.89,11.56-6.29,82.01,10.15,138.63-82.93,117.55-110.97ZM407.06,48.12c-1.61,15.5-10.73,47.51-57.49,60.21-5.03,1.37-9.35-3.74-7.03-8.31,9.24-18.1,29.9-52.77,55.42-59.46,4.9-1.28,9.61,2.62,9.1,7.56Z"/>
      <path class="cls-1" d="M727.16,49.33c13.72-5.51,45.34-20.38,35.5-37.13-12.32-20.99-68.45.31-104.53,41.56-.92,1.06-2.2,1.81-3.64,1.99-1.85.22-3.64-.42-.95-5.02,4.48-7.66,37.24-45.17,37.24-45.17,0,0,3.99-8.18-16.39-2.71-17.13,4.59-61.5,22.7-75.21,28.36-3.57,1.47-2.59,6.59,1.3,6.73,1.68.06,3.84-.09,6.61-.55,15.43-2.57-36.7,65.35-88.2,78.08,0,0-20.86,5.27-30.77-6.84-2.41-2.94-.49-7.27,3.4-7.66,18.69-1.89,68.49-11.34,82.96-58.46,2.64-8.6-1.13-18-9.43-22.26-11.26-5.79-32.12-7.71-69.06,12.7-22.23,12.28-40.3,30.55-51.02,52.8-11.02,22.88-11.94,48.92,20,63.32,0,0,41.92,16.33,114.29-46.57l-19.59,44.3c-1.37,3.1,1.67,6.34,5.06,5.4l45.19-4.76c3.19-.89,5.65-3.28,6.52-6.33,3.22-11.34,18.15-49.43,42.1-71.7,4.22-3.92,2.48-2.52,7.59-5.9,1.68-1.11,5.97-2.41,9.8-2.61,1.76-.09,3.47-.3,5.13-.36,21.14-.81,46.07-11.18,46.07-11.18ZM492.41,77.42c7.02-13.26,25.06-34.33,44.98-33.53,14.34.58-14.34,35.27-38.38,41.37-10.62,2.69-11.79,1.96-6.6-7.84Z"/>
      <path class="cls-1" d="M3.03.97h0c23.76,0,43.21,18.92,43.85,42.68l2.22,82.05c.08,3.04,4.14,4,5.57,1.31L119.23,5.86c1.6-3.01,4.73-4.89,8.14-4.89h44.61s32.91.75,26.88,32.91c-6.03,32.15-22.3,81.35-6.78,85.57,14.12,3.84,21.94-14.08,21.94-14.08l37.26-81.79s7.03-21.85,36.67-22.61h21.35s-70.67,150.71-70.67,150.71c0,0-24.62,58.78-72.34,73.35-47.73,14.57-106.84,9.96-106.84,9.96l3-14.34c3.43-16.4,17.81-28.24,34.56-28.37,22.4-.18,51.69-1.83,63.42-8.7,18-10.55,29.26-26.4,33.87-33.86.7-1.13-.53-2.46-1.71-1.86-10.21,5.2-36.79,15.33-48.57-12.5,0,0-6.7-13.52.17-42.16,6.87-28.64,14.31-57.89,10.34-58.95-15.12-4.03-50.5,78.98-59.39,95.45,0,0-25.85,50-63.81,43.79,0,0-7.81.05-14.81-11.01-3.42-5.41-5.14-11.81-5.62-18.19L0,4.23C-.12,2.47,1.27.97,3.03.97Z"/>
    </g>
  </g>
</svg>