<svg xmlns="http://www.w3.org/2000/svg" version="1.1" xmlns:xlink="http://www.w3.org/1999/xlink" width="1000" height="1000"><style>
    #light-icon {
      display: inline;
    }
    #dark-icon {
      display: none;
    }

    @media (prefers-color-scheme: dark) {
      #light-icon {
        display: none;
      }
      #dark-icon {
        display: inline;
      }
    }
  </style><g id="light-icon"><svg xmlns="http://www.w3.org/2000/svg" version="1.1" xmlns:xlink="http://www.w3.org/1999/xlink" width="1000" height="1000"><g clip-path="url(#SvgjsClipPath1300)"><rect width="1000" height="1000" fill="#ffffff"></rect><g transform="matrix(1.7578125,0,0,1.7578125,50,50)"><svg xmlns="http://www.w3.org/2000/svg" version="1.1" xmlns:xlink="http://www.w3.org/1999/xlink" width="512" height="512"><svg id="Capa_1" xmlns="http://www.w3.org/2000/svg" version="1.1" viewBox="0 0 512 512">
  <!-- Generator: Adobe Illustrator 29.7.1, SVG Export Plug-In . SVG Version: 2.1.1 Build 8)  -->
  <defs>
    <style>
      .st0 {
        fill: #0511f2;
      }
    </style>
  <clipPath id="SvgjsClipPath1300"><rect width="1000" height="1000" x="0" y="0" rx="500" ry="500"></rect></clipPath></defs>
  <g id="Capa_2">
    <path class="st0" d="M69.8,118.3h0c32.5,0,58.9,25.8,59.9,58.2l3,112c0,4.1,5.6,5.5,7.6,1.8l88.1-165.3c2.2-4.1,6.4-6.7,11-6.7h60.8s44.9,1.1,36.7,44.9c-8.2,43.9-30.4,110.9-9.3,116.8,19.2,5.2,29.9-19.2,29.9-19.2l50.9-111.6s9.5-29.9,50.1-30.8h29.2l-96.4,205.5s-33.6,80.2-98.6,100c-65.1,19.9-145.7,13.6-145.7,13.6l4.1-19.5c4.6-22.4,24.3-38.5,47.2-38.7s70.5-2.5,86.5-11.9c24.6-14.5,40-36,46.2-46.2,1-1.5-.7-3.4-2.3-2.6-13.9,7.1-50.2,20.9-66.3-17,0,0-9.1-18.4.3-57.6,9.4-39,19.5-79,14-80.3-18-4.8-58.9,82.2-74.7,118.7-15.8,36.4-13.9,31.1-25.2,43.4-16.1,17.5-40.1,34.9-68.2,28,0,0-10.6,0-20.2-15-4.6-7.4-7-16.1-7.6-24.8l-14.9-191.1c-.1-2.5,1.8-4.5,4.1-4.5h-.1Z"></path>
  </g>
</svg></svg></g></g></svg></g><g id="dark-icon"><svg xmlns="http://www.w3.org/2000/svg" version="1.1" xmlns:xlink="http://www.w3.org/1999/xlink" width="1000" height="1000"><g clip-path="url(#SvgjsClipPath1301)"><rect width="1000" height="1000" fill="#ffffff"></rect><g transform="matrix(1.3671875,0,0,1.3671875,150,150)"><svg xmlns="http://www.w3.org/2000/svg" version="1.1" xmlns:xlink="http://www.w3.org/1999/xlink" width="512" height="512"><svg id="Capa_1" xmlns="http://www.w3.org/2000/svg" version="1.1" viewBox="0 0 512 512">
  <!-- Generator: Adobe Illustrator 29.7.1, SVG Export Plug-In . SVG Version: 2.1.1 Build 8)  -->
  <defs>
    <style>
      .st0 {
        fill: #f2f2f2;
      }
    </style>
  <clipPath id="SvgjsClipPath1301"><rect width="1000" height="1000" x="0" y="0" rx="500" ry="500"></rect></clipPath></defs>
  <g id="Capa_2">
    <path class="st0" d="M69.8,118.3h0c32.5,0,58.9,25.8,59.9,58.2l3,112c0,4.1,5.6,5.5,7.6,1.8l88.1-165.3c2.2-4.1,6.4-6.7,11-6.7h60.8s44.9,1.1,36.7,44.9c-8.2,43.9-30.4,110.9-9.3,116.8,19.2,5.2,29.9-19.2,29.9-19.2l50.9-111.6s9.5-29.9,50.1-30.8h29.2l-96.4,205.5s-33.6,80.2-98.6,100c-65.1,19.9-145.7,13.6-145.7,13.6l4.1-19.5c4.6-22.4,24.3-38.5,47.2-38.7s70.5-2.5,86.5-11.9c24.6-14.5,40-36,46.2-46.2,1-1.5-.7-3.4-2.3-2.6-13.9,7.1-50.2,20.9-66.3-17,0,0-9.1-18.4.3-57.6,9.4-39,19.5-79,14-80.3-18-4.8-58.9,82.2-74.7,118.7-15.8,36.4-13.9,31.1-25.2,43.4-16.1,17.5-40.1,34.9-68.2,28,0,0-10.6,0-20.2-15-4.6-7.4-7-16.1-7.6-24.8l-14.9-191.1c-.1-2.5,1.8-4.5,4.1-4.5h-.1Z"></path>
  </g>
</svg></svg></g></g></svg></g></svg>